# xmcd
#
# Track frame offsets: 
#        150
#        15993
#        30839
#        43520
#
# Disc length: 937 seconds
#
# Revision: 0
# Processed by: cddbd v1.5.2PL0 Copyright (c) Steve Scherf et al.
# Submitted via: ExactAudioCopyFreeDBPlugin 1.0
#
DISCID=1b03a704
DTITLE=Miriam Bryant - Finders Keepers
DYEAR=2012
DGENRE=Pop
TTITLE0=Finders Keepers
TTITLE1=Raised in rain (Reprise)
TTITLE2=Finders Keepers (Acoustic Version)
TTITLE3=Finders Keepers (Taan Newjam Club Mix)
EXTD=
EXTT0=
EXTT1=
EXTT2=
EXTT3=
PLAYORDER=
